<svg id="Layer_1" data-name="Layer 1" xmlns="http://www.w3.org/2000/svg" viewBox="0 0 1289.38 669.57"><defs><style>.cls-1{fill:#fff;}</style></defs><path class="cls-1" d="M335.24,386.71v26L310,385.92H307.1v44.29H316V404.12L341.18,431h3V386.71Z"/><path class="cls-1" d="M356.08,386.71v43.5H365v-43.5Z"/><path class="cls-1" d="M385.81,422.18v-11h14.95v-7.59H385.81v-8.83h20.36v-8H376.9v43.5H407v-8Z"/><path class="cls-1" d="M444.28,386.71v26.17c0,6.32-3.84,9.89-9.57,9.89s-9.56-3.57-9.56-9.89V386.71h-8.89v25.51c0,11.53,7.78,18.77,18.45,18.77s18.45-7.24,18.45-18.77V386.71Z"/><path class="cls-1" d="M516.45,386.71l-9.69,25.57-11.4-26.36h-3L481,412.42l-9.69-25.71h-9.88L478.82,431h2.89l12.19-27.28L506,431h2.89l17.42-44.28Z"/><path class="cls-1" d="M538,386.71v31c0,3.77-2,5.21-6.26,5.21-.52,0-2-.07-4.35-.27v7.59a25.8,25.8,0,0,0,6.26.78c8.51,0,13.26-4.14,13.26-12.38v-31.9Z"/><path class="cls-1" d="M575.17,385.92h-3l-19.43,44.29h9.55l2.44-5.68h17.79l2.44,5.68h9.55Zm-7.31,31.3,5.8-14.69,5.8,14.69Z"/><path class="cls-1" d="M620.73,385.92h-3l-19.45,44.29h9.57l2.44-5.68h17.79l2.43,5.68h9.56Zm-7.32,31.3,5.8-14.69,5.8,14.69Z"/><path class="cls-1" d="M672.4,413.15a13.49,13.49,0,0,0,7.65-12.4c0-8.37-6.58-14-15.68-14H648v43.5h8.89V414.86h6.53l11.28,15.35h10Zm-8-6.14h-7.46V394.56h7.46c4,0,6.58,2.49,6.58,6.19S668.51,407,664.37,407Z"/><path class="cls-1" d="M710.12,405.23l-5-2.18c-3.69-1.64-5.08-2.7-5.08-5,0-2.71,2.3-4.22,5.41-4.22,3.3,0,6.06,1.65,8.29,5l6.07-4.68c-2.7-5-7.71-8.24-14.36-8.24-8.25,0-14.44,4.87-14.44,12.33,0,5.8,3.89,9.55,10.55,12.52l4.67,2.11c4.16,1.91,5.55,2.84,5.55,5.41,0,3-2.32,4.8-6.21,4.8-4.73,0-7.83-2.43-10.67-6.32l-6.12,4.6A18.92,18.92,0,0,0,705.62,431c8.71,0,15.24-5.07,15.24-13C720.86,412.08,717.43,408.46,710.12,405.23Z"/><path class="cls-1" d="M756.65,406.69a10.3,10.3,0,0,0,3.23-7.85c0-7.12-5.74-12.13-13.78-12.13H730.67v43.5h19.38c8.37,0,14.31-5.27,14.31-12.78C764.36,412.15,761.45,408.46,756.65,406.69Zm-17.4-12.33h6.12c3.63,0,5.68,1.84,5.68,4.94s-2,5-5.68,5h-6.12Zm10.14,28.21H739.25V411.63h10.14c3.89,0,6.21,2.11,6.21,5.46S753.28,422.57,749.39,422.57Z"/><path class="cls-1" d="M794.16,385.92c-12.53-.27-23.27,10.08-23.08,22.54-.19,12.45,10.55,22.8,23.08,22.53,12.51.27,23.39-10.08,23.19-22.53C817.55,396,806.67,385.65,794.16,385.92Zm.05,36.85c-8,0-14-5.94-14-14.31s5.94-14.3,14-14.3,14,6.07,14,14.3S802.19,422.77,794.21,422.77Z"/><path class="cls-1" d="M851.24,413.15a13.49,13.49,0,0,0,7.63-12.4c0-8.37-6.58-14-15.68-14H826.85v43.5h8.9V414.86h6.53l11.26,15.35h10Zm-8-6.14h-7.44V394.56h7.44c4,0,6.6,2.49,6.6,6.19S847.35,407,843.19,407Z"/><path class="cls-1" d="M895.4,413.15a13.51,13.51,0,0,0,7.65-12.4c0-8.37-6.6-14-15.7-14H871v43.5h8.9V414.86h6.53l11.26,15.35h10Zm-8-6.14h-7.44V394.56h7.44c4,0,6.6,2.49,6.6,6.19S891.51,407,887.35,407Z"/><path class="cls-1" d="M924.07,422.18v-11h15v-7.59h-15v-8.83h20.38v-8H915.18v43.5h30.05v-8Z"/><path class="cls-1" d="M963.82,422.18V386.71h-8.9v43.5h27.94v-8Z"/><path class="cls-1" d="M785.38,462c-2.89-4.08-7.18-6.12-12.78-6.12s-9.88,2-12.85,6.12-4.42,9.44-4.42,16.09c0,12.85,5.8,22.86,17.27,22.86s17.2-10,17.2-22.86C789.8,471.45,788.36,466.1,785.38,462ZM772.6,492.74c-5.4,0-8.1-4.89-8.1-14.58,0-9.23,2.5-14,8.1-14s8,4.8,8,14C780.63,487.85,777.94,492.74,772.6,492.74Z"/><path class="cls-1" d="M825.67,477.3a14.91,14.91,0,0,0-7.46-4.67l9.62-13.58v-2.37h-28v8h14.49l-9.09,12.72v2.31h5.47c5.8,0,8.9,2.24,8.9,6.26s-3.16,6.73-7.58,6.73c-4,0-6.73-2.05-9.36-6l-6.2,4.34A17.23,17.23,0,0,0,812.28,501c9,0,16.4-6.24,16.4-15A12.64,12.64,0,0,0,825.67,477.3Z"/><path class="cls-1" d="M853.74,470.65h-.26l10-14H853l-10.88,15c-2.9,4-4.22,6-5.2,8.9a15.66,15.66,0,0,0-.73,4.75c-.2,8.9,7.58,15.75,15.95,15.61s16-6.65,16-15.54C868.37,477,861,470.45,853.74,470.65Zm-1.58,22.14a7.35,7.35,0,0,1,0-14.69,7.35,7.35,0,0,1,0,14.69Z"/><polygon class="cls-1" points="920.43 288.22 920.43 279.64 884.22 279.64 884.36 280.24 884.5 280.83 885.64 285.89 885.64 285.9 885.34 286.49 885.05 287.08 912.99 287.08 912.99 295.66 956.13 295.66 956.13 358.5 963.56 358.5 963.56 288.22 920.43 288.22"/><path class="cls-1" d="M739.31,272.64l-.38-1.74-.45-3.31-.08-.6-.09-.59h-6.5v8.18H716.62v4.68h-.35V230.91H693.66v-5.77l-34.32,6v42.26h-2.7V223.89l-25.24,0L607.72,228v96h-4.31V308.66l-30.15-17.45v-4.58H562v-8.19h-9.74v-10H521v8h-6.58v9.35h-9.31V243.27H468.41v21.15H466.5V243.27H430.36l-14.55,3.17v41h-5.33l-10.25,3.23v8.06h-4.65v-3.87H382.3v3.86h-9.36v5.87h-.35V292.47H354.3v7.79H341.38v25H338.7V292.47H318v7h-11.5v67.18H314V306.93h11.5v-7h5.8v32.76h17.57v-25h12.92v-7.8h3.41V312h15.24v-5.87h27.28V296.08l3.86-1.24h11.73v-42.4l7.9-1.74h27.9v24h-3.87v56.76h14v-37h3.89V271.86h2.74V250.7h21.77v42.59h24.2v-9.36h6.58v-8h16.36v10h9.75v8.18h11.3v37.4H579.7V303.54L596,313v18.51h19.18V234.25l16.61-2.92H649.2v49.49h17.57V237.37L686.22,234v4.36h22.6v48.34h15.24V282h15.19v-8.17h.31l-.13-.61Zm-273.63,9.51V287h-3.05v-4.87Z"/><path class="cls-1" d="M772.88,202.88c-1-7.24,1.52-10.78,1.81-11.16a2.68,2.68,0,0,1,4.23,3.29s-1.45,2.19-.74,7.1c.23,1.67,1.71,2.88,4.36,3.6A22.14,22.14,0,0,1,796,215.44a27.94,27.94,0,0,1,3.48,19.29,2.66,2.66,0,0,1-2.6,2.09,2.58,2.58,0,0,1-.6-.07,2.68,2.68,0,0,1-2-3.18,23.1,23.1,0,0,0-2.84-15.37,17,17,0,0,0-10.26-7.33C776.38,209.6,773.43,206.76,772.88,202.88Z"/><path class="cls-1" d="M806.84,221.86a2.69,2.69,0,0,1-2.42,1.5,2.74,2.74,0,0,1-1.17-.27,2.67,2.67,0,0,1-1.23-3.58,29,29,0,0,0,2.5-11.6,21.75,21.75,0,0,0-7.15-16.43,2.68,2.68,0,0,1,3.65-3.92C816.36,201.85,806.92,221.66,806.84,221.86Z"/><path class="cls-1" d="M819.08,236.16a2.63,2.63,0,0,1-2.27-1.25c-4.08-6.55-8.71-21.45,3-30.86,11.38-9.16,7-23.49,6.94-23.63a2.68,2.68,0,1,1,5.1-1.63c.22.73,5.51,18-8.68,29.43-4.5,3.62-6.22,8.62-5.11,14.87a29.78,29.78,0,0,0,3.32,9,2.66,2.66,0,0,1-.87,3.68A2.62,2.62,0,0,1,819.08,236.16Z"/><path class="cls-1" d="M836.46,208.28c0-.52-1-12.73,8.32-20.21a2.67,2.67,0,1,1,3.35,4.17c-7,5.66-6.34,15.49-6.33,15.59a2.69,2.69,0,0,1-2.44,2.88h-.23A2.69,2.69,0,0,1,836.46,208.28Z"/><path class="cls-1" d="M841.34,218.79c4.84-.21,8.9-2.78,10.6-6.71a15.55,15.55,0,0,0,.78-2.3,2.68,2.68,0,0,1,5.2,1.29,20.12,20.12,0,0,1-1.07,3.15c-2.51,5.82-8.37,9.63-15.28,9.92-8.43.37-13.21,12.63-13.26,12.75a2.68,2.68,0,0,1-2.5,1.73,2.76,2.76,0,0,1-1-.18,2.68,2.68,0,0,1-1.54-3.46C823.55,234.35,829.37,219.31,841.34,218.79Z"/><path class="cls-1" d="M791.09,246.6c-10-2.66-18.47-3.37-19.43-1.67h0s-2,5.58-4.09,13.71c-.06.2-.1.4-.15.61s-.1.38-.14.59q-.62,2.4-1.18,5.05l-.13.59c0,.2-.08.4-.13.61A136.49,136.49,0,0,0,763.52,281c-1.74,18.31,7.52,26.75,7.52,26.75h0l-8.53,32c-9.38-2.16-16.85-2.53-17.32-.7-.55,2,7.9,6.05,18.87,9s20.29,3.64,20.82,1.59c.49-1.82-6.16-5.21-15.37-8l8.52-32h0s12.23-2.71,19.84-19.47A135.23,135.23,0,0,0,803,277a5.44,5.44,0,0,1,.19-.61c.06-.21.13-.39.19-.59.56-1.74,1.08-3.44,1.55-5.05.06-.2.12-.41.17-.61s.11-.39.17-.59c2.16-7.65,3.26-13.46,3.46-14.52h0a.41.41,0,0,0,0-.11.13.13,0,0,1,0-.06C808.77,252.86,801,249.25,791.09,246.6Zm10.65,7.83a82.31,82.31,0,0,1-12.12-2.34c-9.17-2.45-14.55-5.16-16.16-6.49.12,0,.28,0,.45-.07a22,22,0,0,1,4.69.11A81.16,81.16,0,0,1,790.72,248c8.62,2.3,13.9,4.83,15.83,6.23l.33.25A18.9,18.9,0,0,1,801.74,254.43Z"/><path class="cls-1" d="M865.15,339.78l-8.52-32h0a23.13,23.13,0,0,0,4.83-7.42c.09-.19.17-.39.25-.6s.17-.39.24-.59a36.39,36.39,0,0,0,2.42-12.85c0-.19,0-.39,0-.6v-.59c0-1.29-.08-2.67-.22-4.1-1.74-18.33-8.13-36.07-8.13-36.07h0c-.95-1.7-9.46-1-19.43,1.67s-17.71,6.26-17.68,8.21v.06a.45.45,0,0,1,0,.11h0a177.24,177.24,0,0,0,5,19.59c.06.2.13.39.18.59s.13.39.2.61c.53,1.64,1.11,3.32,1.71,5,.09.21.16.4.23.6s.15.39.22.59c1,2.71,2.11,5.45,3.33,8.14,7.6,16.76,19.83,19.47,19.83,19.47h0l8.53,32c-9.21,2.78-15.87,6.17-15.39,8,.55,2.05,9.87,1.33,20.84-1.59s19.42-6.94,18.87-9C882,337.25,874.53,337.62,865.15,339.78Zm-44.34-85.31a2.39,2.39,0,0,1,.32-.25c1.94-1.4,7.22-3.93,15.84-6.23a80.92,80.92,0,0,1,12.12-2.35,22,22,0,0,1,4.69-.11c.17,0,.31,0,.43.07-1.6,1.33-7,4-16.15,6.49h0a82.09,82.09,0,0,1-12.1,2.34A18.87,18.87,0,0,1,820.81,254.47Z"/><path class="cls-1" d="M799.49,234.73a2.66,2.66,0,0,1-2.6,2.09,2.58,2.58,0,0,1-.6-.07,2.68,2.68,0,0,1-2-3.18,23.1,23.1,0,0,0-2.84-15.37,17,17,0,0,0-10.26-7.33c-4.79-1.27-7.74-4.11-8.29-8-1-7.24,1.52-10.78,1.81-11.16a2.68,2.68,0,0,1,4.23,3.29s-1.45,2.19-.74,7.1c.23,1.67,1.71,2.88,4.36,3.6A22.14,22.14,0,0,1,796,215.44,27.94,27.94,0,0,1,799.49,234.73Z"/><path class="cls-1" d="M806.84,221.86a2.69,2.69,0,0,1-2.42,1.5,2.74,2.74,0,0,1-1.17-.27,2.67,2.67,0,0,1-1.23-3.58,29,29,0,0,0,2.5-11.6,21.75,21.75,0,0,0-7.15-16.43,2.68,2.68,0,0,1,3.65-3.92C816.36,201.85,806.92,221.66,806.84,221.86Z"/><path class="cls-1" d="M823.14,208.22c-4.5,3.62-6.22,8.62-5.11,14.87a29.78,29.78,0,0,0,3.32,9,2.66,2.66,0,0,1-.87,3.68,2.69,2.69,0,0,1-3.67-.86c-4.08-6.55-8.71-21.45,3-30.86,11.38-9.16,7-23.49,6.94-23.63a2.68,2.68,0,1,1,5.1-1.63C832,179.52,837.33,196.8,823.14,208.22Z"/><path class="cls-1" d="M857.92,211.07a20.12,20.12,0,0,1-1.07,3.15c-2.51,5.82-8.37,9.63-15.28,9.92-8.43.37-13.21,12.63-13.26,12.75a2.68,2.68,0,0,1-2.5,1.73,2.76,2.76,0,0,1-1-.18,2.68,2.68,0,0,1-1.54-3.46c.24-.63,6.06-15.67,18-16.19,4.84-.21,8.9-2.78,10.6-6.71a15.55,15.55,0,0,0,.78-2.3,2.68,2.68,0,0,1,5.2,1.29Z"/><path class="cls-1" d="M848.13,192.24c-7,5.66-6.34,15.49-6.33,15.59a2.69,2.69,0,0,1-2.44,2.88h-.23a2.69,2.69,0,0,1-2.67-2.44c0-.52-1-12.73,8.32-20.21a2.67,2.67,0,1,1,3.35,4.17Z"/><path class="cls-1" d="M786.92,184.27c3.93,0,3.94-6.12,0-6.12s-3.95,6.12,0,6.12Z"/><path class="cls-1" d="M787.59,200.27c3.94,0,3.95-6.12,0-6.12s-3.94,6.12,0,6.12Z"/><path class="cls-1" d="M814.79,190.37c3.94,0,3.94-6.12,0-6.12s-3.95,6.12,0,6.12Z"/><path class="cls-1" d="M830.4,217.73c3.94,0,3.94-6.13,0-6.13s-3.95,6.13,0,6.13Z"/><path class="cls-1" d="M854.89,204.21c3.94,0,3.94-6.12,0-6.12s-3.95,6.12,0,6.12Z"/><path class="cls-1" d="M827.23,171.67c3.94,0,3.95-6.13,0-6.13s-3.94,6.13,0,6.13Z"/><path class="cls-1" d="M809.17,172.35c3.94,0,4-6.12,0-6.12s-3.95,6.12,0,6.12Z"/><path class="cls-1" d="M783.63,227.46c3.94,0,3.94-6.13,0-6.13s-4,6.13,0,6.13Z"/></svg>